<svg width="24" height="24" viewBox="0 0 24 24" fill="none" xmlns="http://www.w3.org/2000/svg">
<path d="M11.9277 1C12.6749 1.00013 13.3915 1.2969 13.9199 1.8252C14.4484 2.3537 14.7451 3.07094 14.7451 3.81836V3.87695C14.7475 3.97713 14.7796 4.07474 14.8379 4.15625C14.8962 4.23774 14.9782 4.29935 15.0723 4.33398L15.1309 4.35742C15.2222 4.39771 15.3237 4.41033 15.4219 4.39258C15.5202 4.37475 15.6112 4.32767 15.6826 4.25781L15.7295 4.21094H15.7305C15.992 3.94942 16.3019 3.74124 16.6436 3.59961C16.9856 3.45782 17.3524 3.38477 17.7227 3.38477C18.0929 3.38477 18.4597 3.45784 18.8018 3.59961C19.1439 3.74143 19.4551 3.9499 19.7168 4.21191C19.9782 4.4733 20.1855 4.78354 20.3271 5.125C20.4689 5.46698 20.5419 5.83391 20.542 6.2041C20.542 6.57445 20.469 6.94206 20.3271 7.28418C20.1853 7.62606 19.9777 7.93666 19.7158 8.19824L19.6641 8.25098C19.5974 8.32138 19.5525 8.4094 19.5352 8.50488C19.5174 8.60307 19.5291 8.70458 19.5693 8.7959L19.6064 8.89355C19.6145 8.91861 19.6209 8.94415 19.627 8.96973C19.6624 9.01976 19.7052 9.06441 19.7568 9.09863C19.837 9.15174 19.9312 9.1805 20.0273 9.18164H20.1816C20.929 9.18165 21.6463 9.47839 22.1748 10.0068C22.7033 10.5353 23 11.2526 23 12C23 12.7474 22.7033 13.4647 22.1748 13.9932C21.6463 14.5216 20.929 14.8184 20.1816 14.8184H20.1035L20.0312 14.8242C19.9596 14.8351 19.891 14.8611 19.8301 14.9014C19.7488 14.9552 19.6849 15.0315 19.6465 15.1211L19.6426 15.1309C19.6023 15.2222 19.5897 15.3237 19.6074 15.4219C19.6252 15.5202 19.6723 15.6112 19.7422 15.6826L19.7891 15.7295C20.0508 15.9911 20.2587 16.3017 20.4004 16.6436C20.5422 16.9856 20.6152 17.3524 20.6152 17.7227C20.6152 18.0929 20.5422 18.4597 20.4004 18.8018C20.2587 19.1436 20.0508 19.4542 19.7891 19.7158L19.584 19.9023C19.3703 20.0778 19.1313 20.2208 18.875 20.3271C18.533 20.4689 18.1661 20.5419 17.7959 20.542C17.4256 20.542 17.0579 20.469 16.7158 20.3271C16.4595 20.2208 16.2205 20.0778 16.0068 19.9023L15.8018 19.7158L15.7471 19.6621C15.677 19.5965 15.5897 19.5524 15.4951 19.5352C15.3969 19.5174 15.2954 19.5291 15.2041 19.5693C15.1481 19.594 15.0895 19.6119 15.0303 19.626C14.98 19.6615 14.9357 19.7051 14.9014 19.7568C14.8475 19.8381 14.8188 19.9337 14.8184 20.0312V20.1816C14.8184 20.929 14.5216 21.6463 13.9932 22.1748C13.4647 22.7033 12.7474 23 12 23C11.2526 23 10.5353 22.7033 10.0068 22.1748C9.47839 21.6463 9.18165 20.929 9.18164 20.1816V20.1035L9.17578 20.0312C9.16495 19.9597 9.13892 19.8909 9.09863 19.8301C9.04482 19.7488 8.96847 19.6849 8.87891 19.6465L8.86914 19.6426C8.77783 19.6023 8.67634 19.5897 8.57812 19.6074C8.47982 19.6252 8.3888 19.6723 8.31738 19.7422L8.27148 19.7881C8.00975 20.0501 7.69856 20.2586 7.35645 20.4004C7.01437 20.5422 6.64764 20.6152 6.27734 20.6152C5.90707 20.6152 5.5403 20.5422 5.19824 20.4004C4.85641 20.2587 4.54675 20.0498 4.28516 19.7881L4.28418 19.7891C4.02234 19.5275 3.81465 19.2169 3.67285 18.875C3.53109 18.533 3.45807 18.1661 3.45801 17.7959C3.45801 17.4256 3.53103 17.0579 3.67285 16.7158C3.77917 16.4595 3.92219 16.2205 4.09766 16.0068L4.28418 15.8018L4.33789 15.7471V15.7461C4.40321 15.6761 4.44767 15.5895 4.46484 15.4951C4.48265 15.3969 4.47088 15.2954 4.43066 15.2041L4.42578 15.1943H4.42676C4.38836 15.1047 4.32443 15.0275 4.24316 14.9736C4.16187 14.9198 4.06625 14.891 3.96875 14.8906H3.81836C3.07094 14.8906 2.3537 14.5939 1.8252 14.0654C1.29678 13.5369 1.00001 12.8196 1 12.0723C1.00012 11.3251 1.2969 10.6085 1.8252 10.0801C2.35371 9.55157 3.07093 9.25488 3.81836 9.25488H3.87695L3.95117 9.24707C4.0246 9.2342 4.0951 9.20585 4.15625 9.16211C4.23774 9.1038 4.29935 9.02176 4.33398 8.92773C4.34121 8.90807 4.34897 8.88831 4.35742 8.86914C4.39772 8.77784 4.41032 8.67634 4.39258 8.57812C4.37476 8.47983 4.32766 8.3888 4.25781 8.31738L4.21094 8.27051C3.94919 8.0089 3.74133 7.6983 3.59961 7.35645C3.45782 7.01437 3.38478 6.64764 3.38477 6.27734C3.38477 5.90707 3.45784 5.54031 3.59961 5.19824C3.74143 4.85612 3.94989 4.54494 4.21191 4.2832H4.21289C4.47418 4.02204 4.78375 3.81438 5.125 3.67285C5.46698 3.53109 5.8339 3.45807 6.2041 3.45801C6.57445 3.45801 6.94207 3.53103 7.28418 3.67285C7.62605 3.81465 7.93666 4.02233 8.19824 4.28418L8.25293 4.33789C8.323 4.40347 8.41031 4.44764 8.50488 4.46484C8.60307 4.48264 8.70459 4.47089 8.7959 4.43066L8.80566 4.42578H8.80664C8.89595 4.38735 8.97267 4.32423 9.02637 4.24316C9.06679 4.18212 9.09272 4.11284 9.10352 4.04102L9.10938 3.96875V3.81836C9.10938 3.07093 9.40606 2.35371 9.93457 1.8252C10.4631 1.29677 11.1804 1 11.9277 1ZM11.9277 3C11.7108 3 11.5021 3.08591 11.3486 3.23926C11.1952 3.3927 11.1094 3.60136 11.1094 3.81836V3.97656C11.1074 4.46401 10.9625 4.94024 10.6934 5.34668C10.4261 5.7502 10.0474 6.06727 9.60352 6.25977V6.26074C9.14664 6.46229 8.6398 6.5217 8.14844 6.43262C7.65694 6.3435 7.20279 6.11003 6.8457 5.76074L6.83789 5.75293L6.78418 5.69824L6.7832 5.69727C6.70728 5.62134 6.61677 5.56163 6.51758 5.52051C6.41828 5.47936 6.31159 5.45801 6.2041 5.45801C6.09679 5.45807 5.99074 5.47943 5.8916 5.52051C5.79242 5.56162 5.70189 5.62135 5.62598 5.69727L5.625 5.69824C5.54895 5.77421 5.48844 5.86457 5.44727 5.96387C5.40609 6.06319 5.38477 6.16982 5.38477 6.27734C5.38478 6.38484 5.4061 6.49152 5.44727 6.59082C5.48844 6.69006 5.54898 6.78051 5.625 6.85645L5.6875 6.91895C6.03671 7.27595 6.27119 7.72934 6.36035 8.2207C6.44946 8.7122 6.38919 9.21977 6.1875 9.67676V9.67578C6.01066 10.1218 5.71029 10.5084 5.31934 10.7881C4.91144 11.0798 4.42516 11.2421 3.92383 11.2539C3.91617 11.2541 3.90805 11.2549 3.90039 11.2549H3.81836C3.60137 11.2549 3.3927 11.3407 3.23926 11.4941C3.08603 11.6475 3.00012 11.8555 3 12.0723C3.00001 12.2892 3.08591 12.4979 3.23926 12.6514C3.39269 12.8048 3.60138 12.8906 3.81836 12.8906H3.97656C4.46401 12.8926 4.94024 13.0375 5.34668 13.3066C5.75029 13.5739 6.06826 13.9524 6.26074 14.3965L6.3291 14.5693C6.47465 14.9794 6.51062 15.4213 6.43262 15.8516C6.35463 16.2817 6.16587 16.6829 5.88574 17.0156L5.76074 17.1543L5.75293 17.1621L5.69824 17.2158L5.69727 17.2168C5.62133 17.2927 5.56163 17.3832 5.52051 17.4824C5.47936 17.5817 5.45801 17.6884 5.45801 17.7959C5.45807 17.9032 5.47943 18.0093 5.52051 18.1084C5.56162 18.2076 5.62135 18.2981 5.69727 18.374L5.69824 18.375C5.77421 18.451 5.86458 18.5116 5.96387 18.5527C6.06318 18.5939 6.16983 18.6152 6.27734 18.6152C6.38483 18.6152 6.49153 18.5939 6.59082 18.5527C6.6654 18.5218 6.73474 18.4798 6.79688 18.4287L6.85645 18.375L6.91895 18.3125C7.27595 17.9633 7.72933 17.7288 8.2207 17.6396C8.65074 17.5617 9.09305 17.5978 9.50293 17.7432L9.67676 17.8125C10.1205 18.005 10.4994 18.3222 10.7666 18.7256C11.0357 19.132 11.1796 19.6083 11.1816 20.0957V20.1816C11.1816 20.3986 11.2684 20.6073 11.4219 20.7607C11.5753 20.9139 11.7832 21 12 21C12.2168 21 12.4247 20.9139 12.5781 20.7607C12.7316 20.6073 12.8184 20.3986 12.8184 20.1816V20.0234C12.8203 19.5361 12.9644 19.0597 13.2334 18.6533C13.5025 18.2469 13.885 17.9274 14.333 17.7354C14.4133 17.701 14.498 17.6785 14.584 17.666C14.9899 17.5247 15.4264 17.4903 15.8516 17.5674C16.3431 17.6565 16.7972 17.89 17.1543 18.2393L17.1621 18.2471L17.2158 18.3018L17.2168 18.3027C17.2927 18.3787 17.3832 18.4384 17.4824 18.4795C17.5817 18.5206 17.6884 18.542 17.7959 18.542C17.9032 18.5419 18.0093 18.5206 18.1084 18.4795C18.2076 18.4384 18.2981 18.3787 18.374 18.3027L18.375 18.3018C18.4511 18.2258 18.5116 18.1354 18.5527 18.0361C18.5939 17.9368 18.6152 17.8302 18.6152 17.7227C18.6152 17.6152 18.5939 17.5085 18.5527 17.4092C18.5218 17.3346 18.4798 17.2653 18.4287 17.2031L18.375 17.1436L18.3125 17.0811C17.9633 16.7241 17.7288 16.2707 17.6396 15.7793C17.5505 15.2878 17.6108 14.7802 17.8125 14.3232H17.8135C18.006 13.8796 18.3223 13.5005 18.7256 13.2334C19.132 12.9643 19.6083 12.8204 20.0957 12.8184H20.1816C20.3986 12.8184 20.6073 12.7316 20.7607 12.5781C20.9139 12.4247 21 12.2168 21 12C21 11.7832 20.9139 11.5753 20.7607 11.4219C20.6073 11.2684 20.3986 11.1816 20.1816 11.1816H20.0234C19.5361 11.1797 19.0597 11.0356 18.6533 10.7666C18.2469 10.4975 17.9274 10.115 17.7354 9.66699C17.701 9.58679 17.6795 9.50197 17.667 9.41602C17.5256 9.01001 17.4903 8.57368 17.5674 8.14844C17.6565 7.65693 17.89 7.20279 18.2393 6.8457L18.2471 6.83789L18.3018 6.78418L18.3027 6.7832C18.3787 6.70728 18.4384 6.61678 18.4795 6.51758C18.5206 6.41828 18.542 6.31159 18.542 6.2041C18.5419 6.09679 18.5206 5.99074 18.4795 5.8916C18.4384 5.79243 18.3786 5.70189 18.3027 5.62598L18.3018 5.625C18.2258 5.54895 18.1354 5.48844 18.0361 5.44727C17.9368 5.40609 17.8302 5.38477 17.7227 5.38477C17.6152 5.38478 17.5085 5.4061 17.4092 5.44727C17.3346 5.47821 17.2653 5.52018 17.2031 5.57129L17.1436 5.625L17.0811 5.6875C16.7241 6.03671 16.2707 6.27118 15.7793 6.36035C15.2878 6.44947 14.7802 6.38918 14.3232 6.1875L14.3242 6.18652C13.8783 6.00967 13.4915 5.71019 13.2119 5.31934C12.9202 4.91144 12.7579 4.42517 12.7461 3.92383C12.7459 3.91617 12.7451 3.90805 12.7451 3.90039V3.81836C12.7451 3.60138 12.6593 3.39269 12.5059 3.23926C12.3526 3.08604 12.1445 3.00013 11.9277 3ZM12 8C14.2091 8.00001 16 9.79087 16 12C16 14.2091 14.2091 16 12 16C9.79087 16 8.00001 14.2091 8 12C8 9.79086 9.79086 8 12 8ZM12 10C10.8954 10 10 10.8954 10 12C10 13.1046 10.8954 14 12 14C13.1046 14 14 13.1046 14 12C14 10.8954 13.1046 10 12 10Z" fill="#252830"/>
</svg>
